# xmcd CD database file
#
# Track frame offsets:
#	150
#	20062
#	35989
#	54551
#	70599
#	88510
#	103921
#	122359
#	138186
#
# Disc length: 2127 seconds
#
# Revision: 0
# Processed by: cddbd v1.4PL0 Copyright (c) Steve Scherf et al.
# Submitted via: Feurio! 1.65 - http://www.feurio.com
#
DISCID=78084d09
DTITLE=Eric Clapton - There's one in Every Crowd
DYEAR=1900
DGENRE=
TTITLE0=We've been told (Jesus coming
TTITLE1=Swing low sweet Chariot
TTITLE2=Little Rachel
TTITLE3=Don't blame me
TTITLE4=The sky is crying
TTITLE5=Singin' the blues
TTITLE6=Better make it through to
TTITLE7=High
TTITLE8=Opposites
EXTD=
EXTT0=
EXTT1=
EXTT2=
EXTT3=
EXTT4=
EXTT5=
EXTT6=
EXTT7=
EXTT8=
PLAYORDER=
